<?xml version="1.0" encoding="utf-8"?>
<!-- Generator: Adobe Illustrator 27.0.0, SVG Export Plug-In . SVG Version: 6.00 Build 0)  -->
<svg version="1.1" id="Layer_1" xmlns="http://www.w3.org/2000/svg" xmlns:xlink="http://www.w3.org/1999/xlink" x="0px" y="0px"
	 viewBox="0 0 16 16" style="enable-background:new 0 0 16 16;" xml:space="preserve">
<style type="text/css">
	.st0{fill:#2B87DA;stroke:#2B87DA;stroke-width:0.6;stroke-miterlimit:10;}
</style>
<g id="SVGRepo_iconCarrier">
	<path class="st0" d="M8.1,0.7c-2.9,0-5.3,2.6-5.3,5.6c0,3.2,2.8,6.4,4.7,8.7c0,0,0.3,0.4,0.7,0.4l0,0c0.4,0,0.7-0.4,0.7-0.4
		c1.8-2.1,4.4-5.7,4.4-8.7S11.4,0.7,8.1,0.7L8.1,0.7z M8.2,14.2L8.2,14.2c-0.1,0-0.1,0-0.1,0l-0.3-0.3c-1.7-2.1-4.2-5-4.2-7.8
		c0-2.5,2-4.7,4.4-4.7c3,0,4.4,2.3,4.4,4.7C12.4,8.2,11,10.9,8.2,14.2L8.2,14.2z M8.1,3.5c-1.5,0-2.6,1.2-2.6,2.7s1.1,2.7,2.6,2.7
		s2.6-1.2,2.6-2.7S9.5,3.5,8.1,3.5L8.1,3.5z M8.1,8c-1,0-1.8-0.8-1.8-1.8s0.8-1.8,1.8-1.8c0.9,0,1.7,0.8,1.7,1.8S9.1,8,8.1,8z"/>
</g>
</svg>
